<?xml version="1.0" standalone="no"?><!DOCTYPE svg PUBLIC "-//W3C//DTD SVG 1.1//EN" "http://www.w3.org/Graphics/SVG/1.1/DTD/svg11.dtd"><svg t="1702042657430" class="icon" viewBox="0 0 1024 1024" version="1.1" xmlns="http://www.w3.org/2000/svg" p-id="6813" xmlns:xlink="http://www.w3.org/1999/xlink" width="200" height="200"><path d="M32 512a32 32 0 0 1 32 32v228.544a32 32 0 0 1-64 0V544A32 32 0 0 1 32 512zM512.448 0.192a96 96 0 0 1 31.808 186.624l-0.064 69.12L640 256a256 256 0 0 1 256 256v256a256 256 0 0 1-256 256H384a256 256 0 0 1-256-256V512a256 256 0 0 1 256-256h96.192V186.56A96 96 0 0 1 512.384 0.192zM640 320H384a192 192 0 0 0-192 192v256a192 192 0 0 0 192 192h256a192 192 0 0 0 192-192V512a192 192 0 0 0-192-192zM366.08 585.408a57.6 57.6 0 1 1 0 115.2 57.6 57.6 0 0 1 0-115.2z m292.608 0a57.6 57.6 0 1 1 0 115.2 57.6 57.6 0 0 1 0-115.2zM992 512a32 32 0 0 1 32 32v228.544a32 32 0 0 1-64 0V544a32 32 0 0 1 32-32z" fill="#2c2c2c" p-id="6814"></path></svg>