<?xml version="1.0" standalone="no"?><!DOCTYPE svg PUBLIC "-//W3C//DTD SVG 1.1//EN" "http://www.w3.org/Graphics/SVG/1.1/DTD/svg11.dtd"><svg t="1702091258545" class="icon" viewBox="0 0 1028 1024" version="1.1" xmlns="http://www.w3.org/2000/svg" p-id="1911" xmlns:xlink="http://www.w3.org/1999/xlink" width="200.78125" height="200"><path d="M755.345554 56.027429H276.25984a36.571429 36.571429 0 0 0-31.597714 18.212571L4.89984 488.009143a36.571429 36.571429 0 0 0 0 36.571428l239.177143 413.769143a36.571429 36.571429 0 0 0 31.670857 18.285715h478.281143a36.571429 36.571429 0 0 0 32.329143-19.456l232.813714-439.076572a36.571429 36.571429 0 0 0-0.877714-35.84l-231.643429-388.388571a36.571429 36.571429 0 0 0-31.451428-17.846857z m-128.219428 137.508571c16.457143-30.646857 56.832-40.301714 87.552-23.844571 30.72 16.530286 40.374857 56.905143 23.917714 87.552-16.530286 30.72-56.905143 40.374857-87.552 23.917714-30.72-16.457143-43.227429-56.832-23.917714-87.552z m-364.982857 312.758857a63.634286 63.634286 0 0 1-63.707429 63.634286 63.634286 63.634286 0 0 1 0-127.341714c35.84 0 63.634286 28.525714 63.634286 63.707428z" fill="#e6e6e6" fill-opacity=".3" p-id="1912" data-spm-anchor-id="a313x.search_index.0.i1.23263a81dFlcuE" class="selected"></path><path d="M417.864411 189.586286c9.728 18.797714 11.995429 38.107429 6.875429 59.172571l-2.267429 5.778286 92.745143 152.868571H516.89984c44.397714 0 82.944 27.721143 95.817143 67.291429l160.109714-1.974857c13.238857-23.552 37.302857-39.204571 65.828572-39.204572 42.715429 0 75.629714 35.254857 75.629714 75.629715 6.144 38.619429-26.916571 73.508571-67.876572 75.556571l-101.156571 164.425143c3.876571 6.290286 7.094857 13.092571 9.874286 20.48 4.534857 18.724571 2.267429 40.301714-6.802286 59.099428-9.142857 18.724571-26.185143 30.72-47.177143 35.181715a89.6 89.6 0 0 1-59.172571-6.802286 79.945143 79.945143 0 0 1-31.670857-36.278857l-187.977143 0.073143c-1.097143 2.998857-2.194286 5.632-3.218286 7.826285-21.577143 38.034286-68.754286 50.029714-104.009143 28.379429a66.998857 66.998857 0 0 1-35.254857-47.177143c-2.267429-7.387429-2.267429-14.189714-2.267429-18.724571 0-14.262857 2.194286-26.185143 9.654858-38.107429a78.262857 78.262857 0 0 1 73.142857-38.034286L445.73184 593.188571l4.534857-7.826285c-18.797714-18.797714-32.987429-44.909714-32.987428-73.362286 0-28.452571 11.922286-54.564571 32.914285-73.362286l-47.177143-84.918857-31.963428-52.736-5.851429 1.462857a77.897143 77.897143 0 0 1-79.286857-37.229714 78.994286 78.994286 0 0 1-9.654857-38.034286c0-6.875429 0-14.262857 2.267429-18.797714 4.534857-18.797714 18.797714-35.254857 35.254857-47.177143 38.034286-21.650286 83.017143-9.654857 104.009143 28.379429z m125.074286 417.792l-3.218286 0.731428a87.771429 87.771429 0 0 1-19.456 2.779429l-3.730285-0.146286-96.036572 136.777143 197.046857 0.146286 1.462858-2.194286c1.389714-1.828571 2.852571-3.657143 4.096-5.558857L542.938697 607.378286z m230.473143-65.243429L614.17984 544.182857c-3.657143 8.777143-8.777143 17.042286-14.848 24.722286l86.016 142.336 3.145143 0.146286 95.232-154.843429-2.925714-3.291429a90.697143 90.697143 0 0 1-7.314286-11.117714z" fill="#2c2c2c" p-id="1913"></path></svg>