<?xml version="1.0" standalone="no"?><!DOCTYPE svg PUBLIC "-//W3C//DTD SVG 1.1//EN" "http://www.w3.org/Graphics/SVG/1.1/DTD/svg11.dtd"><svg t="1702042596307" class="icon" viewBox="0 0 1024 1024" version="1.1" xmlns="http://www.w3.org/2000/svg" p-id="3247" xmlns:xlink="http://www.w3.org/1999/xlink" width="200" height="200"><path d="M254.464 308.736l54.272-54.272 102.4 102.4-54.272 54.272-102.4-102.4z m412.672 102.4l-54.272-54.272 102.4-102.4 54.272 54.272-102.4 102.4z m-54.272 256l54.272-54.272 102.4 102.4-54.272 54.272-102.4-102.4z m-304.128 102.4l-54.272-54.272 102.4-102.4 54.272 54.272-102.4 102.4z" fill="#2c2c2c" p-id="3248"></path><path d="M512 704a192 192 0 1 1 0-384 192 192 0 0 1 0 384z m0-76.8a115.2 115.2 0 1 0 0-230.4 115.2 115.2 0 0 0 0 230.4z m-281.6 281.6a115.2 115.2 0 1 1 0-230.4 115.2 115.2 0 0 1 0 230.4z m0-76.8a38.4 38.4 0 1 0 0-76.8 38.4 38.4 0 0 0 0 76.8z m563.2-486.4a115.2 115.2 0 1 1 0-230.4 115.2 115.2 0 0 1 0 230.4z m0-76.8a38.4 38.4 0 1 0 0-76.8 38.4 38.4 0 0 0 0 76.8z m0 640a115.2 115.2 0 1 1 0-230.4 115.2 115.2 0 0 1 0 230.4z m0-76.8a38.4 38.4 0 1 0 0-76.8 38.4 38.4 0 0 0 0 76.8z m-563.2-486.4a115.2 115.2 0 1 1 0-230.4 115.2 115.2 0 0 1 0 230.4z m0-76.8a38.4 38.4 0 1 0 0-76.8 38.4 38.4 0 0 0 0 76.8z" fill="#2c2c2c" p-id="3249"></path></svg>